<svg version="1.1" xmlns="http://www.w3.org/2000/svg" viewBox="0 0 250 250"><desc>Created with Snap</desc><defs></defs><g transform="matrix(0.0448,0,0,0.0448,89.566,137.2712)"><g transform="matrix(28.4674,0,0,28.4674,-1891.9663,-1184.9565)"><g><g><path d="M56,31h-5v-5c0-0.552-0.447-1-1-1h-6c-0.553,0-1,0.448-1,1v5H33V16c0-0.552-0.448-1-1-1H12c-0.552,0-1,0.448-1,1v27H8    c-0.552,0-1,0.447-1,1s0.448,1,1,1h3v3c0,0.553,0.448,1,1,1h3.08c0.488,3.387,3.4,6,6.92,6s6.432-2.613,6.92-6h10.16    c0.488,3.387,3.401,6,6.92,6c3.859,0,7-3.141,7-7s-3.141-7-7-7c-3.519,0-6.432,2.613-6.92,6H28.92c-0.488-3.387-3.4-6-6.92-6    s-6.432,2.613-6.92,6H13V17h18v15c0,0.552,0.448,1,1,1h12c0.553,0,1-0.448,1-1v-5h4v5c0,0.552,0.447,1,1,1h5v14h-1    c-0.553,0-1,0.447-1,1s0.447,1,1,1h2c0.553,0,1-0.447,1-1V32C57,31.448,56.553,31,56,31z M46,43c2.757,0,5,2.243,5,5s-2.243,5-5,5    s-5-2.243-5-5S43.243,43,46,43z M22,43c2.757,0,5,2.243,5,5s-2.243,5-5,5s-5-2.243-5-5S19.243,43,22,43z" fill="#38444d" style=""></path><path d="M26,21h-8c-0.552,0-1,0.448-1,1v8c0,0.552,0.448,1,1,1h8c0.552,0,1-0.448,1-1v-8C27,21.448,26.552,21,26,21z M25,29h-6v-6    h6V29z" fill="#38444d" style=""></path><path d="M10,11h24c0.553,0,1-0.448,1-1s-0.447-1-1-1H10c-0.552,0-1,0.448-1,1S9.448,11,10,11z" fill="#38444d" style=""></path></g></g><desc>Created with Snap</desc><defs></defs></g><g><g transform="matrix(1,0,0,-1,0,0)"><path d="M537 96Q541 74 532 60Q523 47 516 29Q510 31 507 26Q505 22 503 18Q499 15 494 15Q490 16 486 11Q484 15 483 18Q482 21 477 21Q460 21 436 17Q412 14 399 1Q388 2 380 -2Q372 -5 362 -11Q359 -12 358 -9Q357 -5 350 -7Q343 -12 333 -11Q324 -9 316 -9Q305 -9 294 -13Q283 -17 272 -17Q264 -17 257 -14Q251 -11 244 -6Q236 -11 231 -8Q226 -4 219 -4Q206 -7 201 -2Q197 4 188 2Q185 7 180 10Q176 14 171 18L156 18Q144 27 130 33Q117 39 109 53Q106 55 102 56Q99 58 96 60Q95 63 93 64Q92 66 93 70Q92 75 84 79Q80 81 78 84Q77 88 72 88Q70 98 68 111Q66 124 56 129Q56 134 55 139Q55 144 49 145Q52 158 44 170Q46 175 47 181Q48 188 43 193Q42 197 44 199Q47 201 48 204Q46 212 43 220Q40 229 40 238Q40 241 40 243Q41 246 41 248Q36 261 39 265Q43 270 43 273Q43 279 42 284Q41 290 41 295Q41 303 46 311Q51 319 46 326Q51 338 50 343Q50 348 48 351Q50 356 53 358Q57 361 60 364Q64 375 69 386Q74 398 83 406L83 422Q89 424 91 429Q93 435 93 440Q103 447 108 455Q113 464 120 473Q127 482 133 489Q140 497 144 500Q146 505 148 509Q151 513 154 517Q158 521 164 521Q171 521 172 529Q185 531 189 536Q194 541 199 541Q204 541 208 538Q212 536 217 543Q223 539 228 542Q234 545 239 548Q245 543 255 547Q266 551 274 551Q277 551 282 553Q287 556 290 558Q294 553 299 558Q304 563 307 565Q316 561 323 563Q330 565 339 563Q347 561 348 562Q349 563 350 563Q357 562 362 558Q368 555 375 554Q385 552 394 552Q404 552 414 551Q416 548 417 544Q418 541 422 539Q426 537 427 536Q428 535 431 532Q436 526 438 526Q441 526 440 516Q448 518 449 515Q450 513 455 513Q456 509 458 506Q460 503 462 499Q458 490 457 480Q457 470 453 461Q448 458 445 458Q443 458 436 452Q429 449 427 450Q425 451 423 452Q413 449 412 450Q412 452 410 454Q407 458 403 458Q399 458 395 459Q391 459 388 461Q385 463 381 464Q372 472 365 475Q359 479 351 479Q349 479 346 478Q343 478 340 478Q322 479 309 477Q297 476 284 479Q271 476 267 464Q260 462 251 462Q243 462 235 460Q228 459 222 455Q216 451 213 443Q208 444 206 442Q205 440 202 438Q196 437 194 434Q192 431 191 428Q191 426 189 424Q188 422 182 423Q182 417 178 407Q174 397 181 395Q176 394 176 391Q176 389 170 391Q169 381 163 379Q157 377 156 369Q151 354 149 350Q148 347 145 339Q143 334 143 330Q144 326 142 322Q137 320 137 318Q138 316 138 312Q129 301 132 294Q135 287 126 278Q132 274 132 269Q132 264 131 259Q130 255 130 250Q130 245 131 241Q132 238 132 234Q132 231 131 228Q130 225 130 222Q130 217 132 213Q135 209 135 204Q132 191 135 188Q138 186 138 183Q144 171 148 164Q153 157 155 146Q163 139 167 130Q171 121 182 118Q182 115 183 112Q184 110 185 108Q192 106 196 102Q201 99 206 95Q215 87 223 88Q231 89 241 85Q243 82 250 80Q257 78 265 77Q273 76 281 75Q289 75 293 75Q301 75 306 82Q312 78 319 80Q324 80 325 82Q326 85 329 87Q337 83 343 88Q349 93 352 93Q355 93 355 90Q356 88 363 88Q368 88 369 91Q371 95 374 97Q377 97 382 96Q388 95 394 94Q400 94 405 95Q410 96 413 99Q416 97 420 97Q424 98 428 100Q432 103 436 105Q440 107 443 108Q443 114 440 117Q438 120 438 123Q438 128 442 133Q446 138 446 145Q446 150 443 154Q440 158 440 162Q440 166 441 170Q442 174 442 178Q442 188 438 197Q435 206 435 215Q435 217 437 219Q440 222 440 224Q437 230 434 233Q431 237 423 235Q422 239 420 239Q419 240 421 245Q412 251 404 251Q396 251 386 251Q381 251 375 252Q370 254 365 254Q360 254 356 251Q353 249 350 249Q333 251 322 246Q312 241 304 239Q296 244 288 242Q280 241 271 241Q266 241 263 243Q260 246 255 246Q243 247 238 242Q230 245 222 250Q215 255 207 258Q207 264 204 269Q202 275 200 280Q198 285 197 291Q197 297 199 304Q204 306 213 311Q222 316 222 321Q232 329 244 327Q257 325 269 325Q274 325 279 326Q285 328 290 328Q304 328 322 325Q340 323 354 328Q366 335 371 333Q376 332 381 337Q392 332 401 337Q411 342 419 350Q421 350 423 345Q425 340 427 338Q433 340 439 337Q446 334 451 338Q454 338 457 334Q460 330 464 328Q473 324 483 325Q493 327 501 323Q506 321 507 316Q509 312 515 313L518 289Q520 283 522 276Q524 270 525 264Q525 260 523 257Q521 255 519 251Q521 243 525 240Q530 238 535 233Q535 228 531 225Q528 223 527 218Q531 214 531 207Q532 200 532 191Q533 183 534 175Q535 168 539 162Q536 153 537 144Q539 136 540 127Q542 119 542 111Q542 103 537 96ZM754 49Q752 46 750 43Q748 41 747 38Q741 36 737 33Q733 31 726 31Q713 18 699 11Q693 16 685 17Q678 19 670 18Q670 19 667 22Q664 26 660 29Q657 33 654 36Q651 40 650 40Q650 52 647 64Q645 76 645 87Q645 95 648 103Q651 111 651 119Q651 128 650 137Q650 146 650 155Q650 159 651 162Q652 165 652 169Q652 174 649 178Q647 183 647 188Q647 193 648 197Q650 201 650 206Q650 213 645 218Q646 223 648 226Q650 229 652 234Q645 254 650 270Q655 286 655 306Q655 310 653 312Q651 315 650 319Q655 326 652 330Q649 335 647 340Q650 343 650 351Q650 359 650 363Q651 368 649 370Q648 372 647 377Q652 383 648 395Q645 407 645 415Q645 419 645 426Q646 434 646 442Q646 450 646 457Q646 464 645 468Q643 471 641 474Q639 477 639 481Q639 486 641 492Q643 498 642 503Q647 506 649 507Q651 508 657 506Q659 513 664 520Q669 527 677 527Q681 527 684 524Q687 521 690 519Q693 517 696 516Q699 516 702 521Q708 519 711 514Q714 510 722 509Q724 502 728 495Q732 489 732 482Q732 477 730 472Q729 468 729 463Q729 460 730 457Q732 454 732 450Q732 444 730 438Q729 432 729 425Q729 419 732 415Q735 412 735 407Q735 399 734 397Q734 395 739 388Q740 383 738 380Q737 377 737 374Q737 369 739 366Q742 363 742 360Q742 357 740 354Q739 351 739 348Q739 323 742 301Q743 295 745 289Q747 284 747 279Q747 273 745 267Q744 262 744 256Q744 244 745 232Q747 221 745 209Q747 204 747 199Q747 195 752 193Q750 188 747 186Q745 184 747 177Q745 169 749 165Q753 161 753 157Q753 156 750 154Q747 153 747 148Q747 144 749 141Q752 139 752 135Q752 130 751 125Q750 120 750 115Q750 104 753 92Q756 80 746 70Q751 65 750 59Q749 53 754 49ZM1302 517L1307 510Q1305 507 1301 494Q1297 482 1295 481Q1294 474 1283 468Q1273 463 1268 462Q1257 460 1242 461Q1228 462 1223 449Q1216 453 1208 452Q1201 452 1193 450Q1186 449 1178 447Q1171 445 1164 445Q1151 445 1138 450Q1126 455 1112 455Q1103 455 1094 452Q1086 450 1078 450Q1071 450 1065 452Q1059 455 1053 455Q1049 455 1045 454Q1042 454 1038 454Q1032 454 1028 458Q1019 453 1010 453Q1001 453 992 454Q983 456 973 455Q963 455 953 448Q955 441 953 436Q951 432 951 426Q951 420 953 415Q956 410 956 405Q956 394 954 384Q953 375 963 367Q970 371 977 372Q984 374 991 378Q996 378 1002 374Q1009 372 1015 372Q1022 373 1029 373Q1036 373 1041 370Q1047 368 1054 368Q1060 368 1065 370Q1071 373 1078 373Q1084 373 1089 370Q1095 368 1101 368Q1106 368 1110 369Q1115 370 1120 370Q1132 372 1144 371Q1156 370 1168 370Q1176 370 1182 372Q1189 374 1197 375Q1202 376 1206 375Q1210 375 1215 375Q1219 375 1227 377Q1235 375 1238 370Q1242 365 1251 365Q1256 365 1258 366Q1261 368 1265 370Q1267 367 1272 361Q1277 356 1282 351Q1288 346 1292 341Q1296 337 1296 334Q1296 328 1294 323Q1293 318 1285 317Q1283 312 1283 307Q1283 303 1275 299Q1275 294 1265 290Q1256 286 1251 289Q1241 283 1235 283Q1230 283 1225 286Q1221 289 1216 292Q1211 296 1203 296Q1196 296 1187 294Q1179 293 1174 289Q1169 290 1167 291Q1165 292 1163 293Q1161 294 1158 293Q1155 293 1150 291Q1132 291 1114 294Q1097 298 1079 298Q1070 298 1064 295Q1058 293 1050 291Q1045 290 1041 290Q1038 291 1033 291Q1031 291 1025 290Q1020 289 1014 288Q1008 287 1003 286Q998 285 997 284Q995 289 989 286Q984 283 982 281Q974 286 967 278Q961 270 961 262Q961 251 968 243Q975 235 973 221Q974 217 976 214Q979 212 981 208Q982 201 981 194Q980 188 980 181Q980 176 981 172Q983 168 983 164Q983 161 980 160Q978 159 978 154Q978 149 980 139Q983 130 986 126Q986 122 983 119Q981 117 981 112Q981 104 982 97Q984 91 978 84Q976 76 979 74Q983 72 983 68Q983 62 974 50Q966 38 964 30Q956 26 947 22Q939 18 929 18Q922 18 918 21Q914 24 908 25Q904 33 901 41Q898 50 891 57Q891 63 891 69Q892 75 894 80Q891 86 890 93Q890 101 890 109Q891 117 890 124Q889 132 884 138Q894 149 889 157Q884 165 884 171Q884 178 886 178Q888 178 882 187Q886 191 882 202Q879 213 877 217Q881 222 878 229Q876 237 883 240Q876 250 875 264Q874 279 870 281Q873 287 873 294Q873 305 869 315Q866 325 866 336Q866 344 867 352Q868 361 868 369Q868 377 866 383Q864 390 864 398Q864 400 864 403Q865 406 865 408Q865 411 864 414Q863 417 863 419Q863 422 863 424Q864 427 864 429Q864 439 860 448Q856 457 857 468Q854 472 849 474Q853 478 851 481Q850 485 847 488Q851 512 857 521Q864 531 871 534Q878 537 885 537Q892 537 898 543Q904 540 907 539Q910 539 912 539Q914 540 917 540Q920 541 925 541Q929 541 931 539Q934 537 938 536Q960 534 981 533Q1003 533 1023 524Q1028 526 1034 527Q1040 529 1046 531Q1054 530 1061 527Q1068 524 1076 524Q1086 524 1096 525Q1106 527 1116 527Q1121 527 1125 525Q1130 524 1135 524Q1142 524 1144 527Q1147 531 1152 531Q1163 531 1176 527Q1190 524 1198 536Q1205 532 1211 533Q1217 534 1223 536Q1229 539 1235 541Q1241 544 1248 544Q1256 544 1263 542Q1271 541 1279 541Q1282 536 1285 534Q1288 533 1291 531Q1294 529 1297 526Q1300 523 1302 517ZM1818 471Q1817 461 1822 458Q1828 456 1828 448Q1828 447 1821 442Q1814 437 1812 435Q1799 438 1789 432Q1780 426 1775 423Q1769 427 1763 425Q1757 423 1751 423Q1741 423 1732 426Q1724 430 1715 430Q1712 430 1709 429Q1706 428 1702 428Q1687 436 1678 433Q1669 430 1662 438Q1654 434 1645 433Q1637 433 1631 428Q1623 431 1615 429Q1607 428 1599 431Q1592 425 1595 422Q1599 419 1599 414Q1596 411 1595 407Q1595 404 1595 400Q1596 397 1595 393Q1594 389 1590 386Q1594 381 1595 375Q1597 369 1598 363Q1599 357 1600 351Q1601 346 1606 342Q1601 332 1604 322Q1608 312 1612 303Q1615 295 1614 287Q1614 280 1619 273Q1614 264 1616 258Q1618 253 1621 247Q1624 242 1626 237Q1629 232 1631 231Q1630 225 1628 216Q1627 208 1629 203Q1628 192 1629 186Q1630 181 1632 175Q1634 170 1635 164Q1637 159 1634 150Q1635 146 1636 142Q1637 138 1641 136Q1641 133 1638 131Q1635 130 1634 125Q1639 112 1646 102Q1644 91 1646 86Q1648 81 1649 71Q1646 66 1642 61Q1638 57 1634 52Q1635 35 1633 20Q1632 6 1611 4Q1604 3 1604 -6Q1597 -5 1593 -8Q1589 -11 1584 -11Q1580 -5 1577 -6Q1574 -7 1569 -7Q1565 -7 1558 1Q1551 9 1543 11Q1546 17 1544 20Q1543 24 1541 27Q1540 30 1540 33Q1540 36 1545 40Q1540 54 1542 68Q1545 83 1540 97Q1549 106 1547 120Q1545 134 1545 145Q1545 149 1546 152Q1547 156 1547 161Q1547 169 1543 174Q1539 180 1537 187Q1539 207 1537 225Q1536 243 1525 260Q1524 265 1525 267Q1527 270 1527 275Q1525 279 1524 283Q1523 288 1518 290Q1522 302 1521 310Q1521 318 1518 324Q1516 331 1513 336Q1510 342 1510 348Q1510 351 1511 354Q1513 357 1513 360Q1513 364 1510 367Q1507 371 1507 374Q1510 388 1507 393Q1505 398 1505 403Q1505 407 1505 410Q1506 413 1506 416Q1506 424 1499 430Q1493 436 1485 436Q1476 436 1467 433Q1459 430 1450 430Q1436 430 1422 431Q1409 432 1395 430Q1389 429 1383 426Q1377 423 1371 423Q1365 423 1359 426Q1354 430 1348 430Q1343 442 1333 449Q1323 456 1314 464Q1310 477 1315 483Q1320 489 1324 500Q1330 504 1336 508Q1343 512 1347 518Q1353 515 1360 514Q1367 513 1373 509Q1378 510 1382 512Q1387 514 1392 514Q1397 514 1401 511Q1405 509 1410 509Q1415 509 1420 512Q1425 515 1430 517Q1435 512 1441 512Q1448 513 1454 514Q1461 515 1467 515Q1473 516 1477 511Q1482 513 1485 516Q1489 519 1493 522Q1504 520 1514 514Q1525 509 1537 509Q1541 509 1544 510Q1547 512 1551 512Q1557 512 1563 510Q1569 509 1574 508Q1580 507 1585 508Q1591 509 1597 514Q1602 511 1606 508Q1611 505 1616 502Q1633 505 1651 503Q1669 501 1686 509Q1691 508 1695 507Q1699 507 1703 504Q1712 510 1722 509Q1732 508 1739 514Q1747 518 1750 517Q1753 517 1756 517Q1771 524 1777 522Q1784 521 1789 526Q1798 522 1803 518Q1809 514 1820 514Q1822 509 1827 501Q1832 494 1832 489Q1832 481 1827 478Q1822 476 1818 471ZM2273 81Q2270 76 2265 72Q2261 68 2258 63Q2261 57 2260 52Q2260 47 2259 40Q2253 37 2248 32Q2243 27 2236 32Q2229 24 2214 23Q2200 22 2191 26Q2188 24 2185 21Q2182 19 2178 17Q2172 16 2170 11Q2163 9 2156 10Q2149 11 2142 11Q2125 9 2119 12Q2114 16 2104 11Q2096 13 2091 19Q2084 18 2082 15Q2080 13 2075 11Q2067 12 2058 13Q2050 14 2042 14Q2035 14 2030 11Q2025 8 2023 8Q2008 11 2001 8Q1994 6 1987 4Q1982 2 1972 2Q1969 1 1965 0Q1962 -1 1959 -4Q1953 -2 1943 -1Q1933 0 1933 -11Q1930 -7 1929 -4Q1929 0 1922 -1Q1915 8 1912 7Q1909 6 1907 8Q1905 13 1904 15Q1903 18 1898 20Q1894 25 1890 28Q1886 32 1883 37Q1882 42 1884 44Q1887 47 1889 52Q1885 54 1884 56Q1883 59 1881 64Q1881 69 1883 73Q1886 78 1889 83Q1885 88 1886 92Q1888 97 1888 102Q1888 111 1885 119Q1883 127 1883 135Q1883 143 1884 152Q1886 161 1878 166Q1881 180 1878 194Q1875 208 1881 221Q1880 227 1877 230Q1875 234 1873 239Q1875 245 1874 251Q1874 258 1873 264Q1873 270 1873 276Q1873 283 1876 289Q1873 295 1871 303Q1870 312 1869 322Q1869 332 1870 340Q1871 349 1873 355Q1874 361 1872 362Q1870 363 1868 368Q1870 375 1870 382Q1870 389 1874 395Q1869 403 1869 413Q1870 423 1871 433Q1873 444 1873 454Q1874 465 1868 475Q1868 482 1872 484Q1876 487 1876 492L1876 512Q1879 513 1881 515Q1883 518 1885 520Q1890 525 1895 525Q1900 526 1906 534Q1919 537 1919 534Q1920 531 1925 526Q1930 528 1933 527Q1936 526 1941 524Q1946 515 1955 500Q1965 485 1965 475Q1965 472 1961 469Q1957 466 1955 463Q1955 459 1955 456Q1955 454 1953 451Q1952 444 1954 442Q1957 440 1958 435Q1950 430 1952 424Q1955 419 1955 412Q1955 406 1952 401Q1950 397 1957 392Q1950 387 1955 379Q1954 373 1953 367Q1953 361 1953 354Q1953 349 1955 346Q1958 343 1958 340Q1958 338 1956 335Q1955 333 1955 330Q1955 327 1956 324Q1958 322 1958 319Q1958 317 1955 313Q1953 310 1953 306Q1953 298 1955 288Q1957 279 1962 271Q1957 264 1960 257Q1963 251 1958 248Q1955 242 1959 240Q1963 239 1963 236Q1963 233 1961 230Q1960 228 1960 225Q1960 218 1962 211Q1964 205 1957 200Q1963 185 1967 166Q1972 148 1970 131Q1976 129 1976 123Q1976 117 1983 115Q1982 110 1980 108Q1979 106 1984 101Q2003 93 2022 97Q2041 101 2061 101Q2071 101 2074 99Q2078 98 2079 95Q2081 93 2082 91Q2083 90 2089 90Q2111 97 2127 94Q2143 92 2155 98Q2158 98 2161 95Q2164 93 2168 92Q2174 101 2184 101Q2195 102 2203 110Q2211 111 2219 110Q2227 114 2236 115Q2245 117 2254 120Q2265 115 2268 103Q2272 92 2273 81ZM2762 487Q2756 482 2749 472Q2743 462 2737 460Q2735 459 2732 459Q2729 460 2726 460Q2721 460 2719 458Q2717 456 2713 455Q2706 459 2699 460Q2692 461 2685 465Q2679 465 2676 462Q2673 459 2668 459Q2663 459 2658 461Q2654 463 2650 458Q2631 464 2611 466Q2592 469 2573 474Q2565 470 2557 470Q2550 471 2542 469Q2539 468 2536 466Q2533 465 2530 465Q2526 465 2523 466Q2520 467 2516 467Q2510 467 2504 464Q2498 462 2492 462Q2487 462 2484 464Q2481 467 2476 462Q2473 467 2469 464Q2466 462 2463 460Q2447 460 2441 461Q2436 463 2429 462Q2429 455 2429 442Q2429 429 2429 415Q2430 402 2430 390Q2430 379 2429 375Q2432 368 2439 368Q2447 368 2452 368Q2466 362 2480 361Q2495 361 2509 361Q2514 361 2517 362Q2521 363 2526 363Q2530 363 2538 361Q2547 360 2555 359Q2564 359 2570 361Q2577 363 2577 371Q2588 373 2592 367Q2597 361 2602 361Q2607 361 2609 365Q2611 369 2615 371Q2619 371 2620 367Q2621 364 2628 364Q2634 364 2641 368Q2649 373 2657 363Q2664 361 2667 363Q2670 365 2676 366Q2683 354 2692 343Q2701 333 2706 320Q2703 320 2699 317Q2695 314 2692 309Q2689 305 2687 301Q2685 297 2686 294Q2680 289 2673 284Q2667 280 2659 280Q2651 280 2649 283Q2648 286 2643 286Q2638 286 2634 284Q2631 283 2627 283Q2622 283 2616 284Q2611 286 2605 286Q2598 286 2591 283Q2585 281 2578 281Q2573 281 2569 283Q2566 285 2562 286Q2555 287 2549 287Q2543 288 2536 288Q2531 288 2527 285Q2524 283 2519 283Q2514 283 2508 284Q2503 286 2498 286Q2494 286 2491 285Q2488 284 2485 284Q2467 282 2456 280Q2445 279 2434 276Q2435 265 2435 254Q2436 243 2441 233Q2441 230 2438 229Q2436 228 2436 223Q2444 213 2445 201Q2447 190 2446 178Q2445 166 2444 154Q2443 142 2448 130Q2445 122 2443 115Q2442 109 2443 101Q2450 91 2461 91Q2466 91 2470 91Q2474 92 2479 92Q2483 92 2486 91Q2489 90 2493 90Q2505 90 2517 91Q2529 93 2541 93Q2545 93 2548 92Q2552 92 2556 92Q2563 92 2569 93Q2576 95 2583 95Q2588 95 2592 93Q2596 92 2601 92Q2610 92 2618 95Q2627 98 2636 98Q2638 98 2641 97Q2644 97 2646 97Q2651 97 2653 101Q2655 106 2657 107Q2662 108 2667 109Q2672 110 2677 111Q2681 112 2683 108Q2686 105 2687 102Q2696 101 2701 96Q2707 91 2715 90Q2717 85 2720 81Q2723 78 2728 78Q2726 70 2730 61Q2724 59 2719 54Q2715 49 2710 47Q2711 41 2712 35Q2713 30 2712 23Q2710 21 2706 21Q2703 22 2700 22Q2693 22 2691 17Q2690 13 2685 13Q2682 15 2677 15Q2672 15 2667 15Q2662 15 2657 15Q2653 15 2650 17Q2644 17 2640 14Q2636 12 2632 8Q2622 12 2613 9Q2605 6 2597 1Q2593 5 2589 5Q2586 5 2581 4Q2581 7 2578 9Q2576 12 2575 15Q2558 12 2541 13Q2524 15 2507 10Q2498 15 2485 15Q2473 15 2464 8Q2456 12 2447 8Q2438 5 2429 5Q2416 8 2413 5Q2411 3 2408 3Q2403 3 2398 3Q2394 3 2389 5Q2384 12 2380 12Q2377 12 2373 14Q2372 22 2364 29Q2356 36 2351 41Q2354 43 2357 44Q2361 46 2361 50Q2354 60 2353 64Q2353 68 2353 72Q2354 77 2353 81Q2353 86 2349 89Q2359 92 2359 96Q2359 110 2355 122Q2351 134 2351 148Q2359 156 2358 159Q2358 163 2358 173Q2358 184 2359 193Q2361 203 2352 211Q2354 221 2352 230Q2351 240 2351 250Q2351 262 2353 273Q2356 285 2356 297Q2356 304 2353 307Q2351 310 2351 313Q2354 326 2352 329Q2350 333 2349 338Q2347 353 2348 369Q2350 385 2350 401Q2350 412 2346 426Q2343 440 2345 446Q2343 449 2342 453Q2341 457 2337 459Q2343 467 2336 473Q2330 480 2330 488Q2330 497 2333 503Q2337 509 2333 519Q2342 523 2353 526Q2358 531 2359 534Q2360 538 2370 538Q2387 538 2403 535Q2419 533 2436 530Q2440 531 2443 531Q2446 532 2449 534Q2457 530 2464 530Q2471 531 2477 533Q2484 535 2490 537Q2497 540 2504 540Q2512 540 2519 538Q2526 537 2534 537Q2560 537 2586 540Q2613 544 2639 542Q2648 537 2646 533Q2650 535 2653 536Q2657 537 2662 537Q2674 537 2689 536Q2705 536 2716 533Q2722 527 2726 526Q2731 524 2735 522Q2739 521 2744 519Q2748 517 2751 515Q2755 514 2759 512Q2766 502 2761 497Q2757 493 2762 487ZM3274 487Q3268 482 3261 472Q3255 462 3249 460Q3247 459 3244 459Q3241 460 3238 460Q3233 460 3231 458Q3229 456 3225 455Q3218 459 3211 460Q3204 461 3197 465Q3191 465 3188 462Q3185 459 3180 459Q3175 459 3170 461Q3166 463 3162 458Q3143 464 3123 466Q3104 469 3085 474Q3077 470 3069 470Q3062 471 3054 469Q3051 468 3048 466Q3045 465 3042 465Q3038 465 3035 466Q3032 467 3028 467Q3022 467 3016 464Q3010 462 3004 462Q2999 462 2996 464Q2993 467 2988 462Q2985 467 2981 464Q2978 462 2975 460Q2959 460 2953 461Q2948 463 2941 462Q2941 455 2941 442Q2941 429 2941 415Q2942 402 2942 390Q2942 379 2941 375Q2944 368 2951 368Q2959 368 2964 368Q2978 362 2992 361Q3007 361 3021 361Q3026 361 3029 362Q3033 363 3038 363Q3042 363 3050 361Q3059 360 3067 359Q3076 359 3082 361Q3089 363 3089 371Q3100 373 3104 367Q3109 361 3114 361Q3119 361 3121 365Q3123 369 3127 371Q3131 371 3132 367Q3133 364 3140 364Q3146 364 3153 368Q3161 373 3169 363Q3176 361 3179 363Q3182 365 3188 366Q3195 354 3204 343Q3213 333 3218 320Q3215 320 3211 317Q3207 314 3204 309Q3201 305 3199 301Q3197 297 3198 294Q3192 289 3185 284Q3179 280 3171 280Q3163 280 3161 283Q3160 286 3155 286Q3150 286 3146 284Q3143 283 3139 283Q3134 283 3128 284Q3123 286 3117 286Q3110 286 3103 283Q3097 281 3090 281Q3085 281 3081 283Q3078 285 3074 286Q3067 287 3061 287Q3055 288 3048 288Q3043 288 3039 285Q3036 283 3031 283Q3026 283 3020 284Q3015 286 3010 286Q3006 286 3003 285Q3000 284 2997 284Q2979 282 2968 280Q2957 279 2946 276Q2947 265 2947 254Q2948 243 2953 233Q2953 230 2950 229Q2948 228 2948 223Q2956 213 2957 201Q2959 190 2958 178Q2957 166 2956 154Q2955 142 2960 130Q2957 122 2955 115Q2954 109 2955 101Q2962 91 2973 91Q2978 91 2982 91Q2986 92 2991 92Q2995 92 2998 91Q3001 90 3005 90Q3017 90 3029 91Q3041 93 3053 93Q3057 93 3060 92Q3064 92 3068 92Q3075 92 3081 93Q3088 95 3095 95Q3100 95 3104 93Q3108 92 3113 92Q3122 92 3130 95Q3139 98 3148 98Q3150 98 3153 97Q3156 97 3158 97Q3163 97 3165 101Q3167 106 3169 107Q3174 108 3179 109Q3184 110 3189 111Q3193 112 3195 108Q3198 105 3199 102Q3208 101 3213 96Q3219 91 3227 90Q3229 85 3232 81Q3235 78 3240 78Q3238 70 3242 61Q3236 59 3231 54Q3227 49 3222 47Q3223 41 3224 35Q3225 30 3224 23Q3222 21 3218 21Q3215 22 3212 22Q3205 22 3203 17Q3202 13 3197 13Q3194 15 3189 15Q3184 15 3179 15Q3174 15 3169 15Q3165 15 3162 17Q3156 17 3152 14Q3148 12 3144 8Q3134 12 3125 9Q3117 6 3109 1Q3105 5 3101 5Q3098 5 3093 4Q3093 7 3090 9Q3088 12 3087 15Q3070 12 3053 13Q3036 15 3019 10Q3010 15 2997 15Q2985 15 2976 8Q2968 12 2959 8Q2950 5 2941 5Q2928 8 2925 5Q2923 3 2920 3Q2915 3 2910 3Q2906 3 2901 5Q2896 12 2892 12Q2889 12 2885 14Q2884 22 2876 29Q2868 36 2863 41Q2866 43 2869 44Q2873 46 2873 50Q2866 60 2865 64Q2865 68 2865 72Q2866 77 2865 81Q2865 86 2861 89Q2871 92 2871 96Q2871 110 2867 122Q2863 134 2863 148Q2871 156 2870 159Q2870 163 2870 173Q2870 184 2871 193Q2873 203 2864 211Q2866 221 2864 230Q2863 240 2863 250Q2863 262 2865 273Q2868 285 2868 297Q2868 304 2865 307Q2863 310 2863 313Q2866 326 2864 329Q2862 333 2861 338Q2859 353 2860 369Q2862 385 2862 401Q2862 412 2858 426Q2855 440 2857 446Q2855 449 2854 453Q2853 457 2849 459Q2855 467 2848 473Q2842 480 2842 488Q2842 497 2845 503Q2849 509 2845 519Q2854 523 2865 526Q2870 531 2871 534Q2872 538 2882 538Q2899 538 2915 535Q2931 533 2948 530Q2952 531 2955 531Q2958 532 2961 534Q2969 530 2976 530Q2983 531 2989 533Q2996 535 3002 537Q3009 540 3016 540Q3024 540 3031 538Q3038 537 3046 537Q3072 537 3098 540Q3125 544 3151 542Q3160 537 3158 533Q3162 535 3165 536Q3169 537 3174 537Q3186 537 3201 536Q3217 536 3228 533Q3234 527 3238 526Q3243 524 3247 522Q3251 521 3256 519Q3260 517 3263 515Q3267 514 3271 512Q3278 502 3273 497Q3269 493 3274 487Z" fill="#fca164" style=""></path></g></g></g></svg>