<svg xmlns="http://www.w3.org/2000/svg" xmlns:xlink="http://www.w3.org/1999/xlink" id="svg132647" viewBox="0 0 1024 768" height="768px" width="1024px" version="1.1">
    <defs id="defs132651"></defs>
    <linearGradient spreadMethod="pad" y2="30%" x2="-10%" y1="120%" x1="30%" id="3d_gradient2-logo-1230db3a-c8ba-4d29-8be7-c0b22cafc425">
        <stop id="stop132628" stop-opacity="1" stop-color="#ffffff" offset="0%"></stop>
        <stop id="stop132630" stop-opacity="1" stop-color="#000000" offset="100%"></stop>
    </linearGradient>
    <linearGradient gradientTransform="rotate(-30)" spreadMethod="pad" y2="30%" x2="-10%" y1="120%" x1="30%" id="3d_gradient3-logo-1230db3a-c8ba-4d29-8be7-c0b22cafc425">
        <stop id="stop132633" stop-opacity="1" stop-color="#ffffff" offset="0%"></stop>
        <stop id="stop132635" stop-opacity="1" stop-color="#cccccc" offset="50%"></stop>
        <stop id="stop132637" stop-opacity="1" stop-color="#000000" offset="100%"></stop>
    </linearGradient>
    <g id="logo-group">
        <image xlink:href="" id="container" x="272" y="144" width="480" height="480" style="display: none;" transform="translate(0 0)"></image>
        <g id="logo-center" transform="translate(0 0)">
            <image xlink:href="" id="icon_container" style="display: none;" x="0" y="0"></image>
            <g id="slogan" style="font-style:normal;font-weight:400;font-size:32px;line-height:1;font-family:Lora;font-variant-ligatures:none;text-align:center;text-anchor:middle" transform="translate(0 0)">
                <path id="path132655" style="font-style:normal;font-weight:400;font-size:32px;line-height:1;font-family:Lora;font-variant-ligatures:none;text-align:center;text-anchor:middle"
                      d="m 334.8535,-22.912 q 1.44,0 2.88,0.384 1.472,0.352 2.688,1.248 l -0.128,-1.376 h 1.632 v 7.04 h -1.152 q -0.16,-2.528 -1.632,-4.256 -1.44,-1.76 -4.064,-1.76 -1.92,0 -3.008,1.088 -1.088,1.056 -1.088,2.656 0,1.28 0.736,2.208 0.736,0.928 1.792,1.536 1.056,0.608 2.976,1.504 2.176,0.992 3.488,1.792 1.344,0.8 2.272,2.112 0.928,1.28 0.928,3.168 0,1.792 -0.896,3.168 -0.864,1.376 -2.56,2.144 -1.696,0.768 -4.032,0.768 -1.504,0 -3.04,-0.416 -1.504,-0.416 -2.656,-1.216 l 0.16,1.376 h -1.664 l -0.192,-6.816 h 1.248 q 0.16,2.752 1.888,4.256 1.728,1.472 4.384,1.472 1.952,0 3.264,-1.056 1.344,-1.088 1.344,-2.944 0,-1.376 -0.768,-2.336 -0.736,-0.992 -1.856,-1.632 -1.088,-0.672 -2.976,-1.536 -2.144,-1.024 -3.424,-1.792 -1.248,-0.768 -2.144,-2.016 -0.896,-1.28 -0.896,-3.136 0,-1.28 0.576,-2.56 0.608,-1.28 2.048,-2.176 1.472,-0.896 3.872,-0.896 z"
                      stroke-width="0" stroke-linejoin="miter" stroke-miterlimit="2" fill="#03b989" stroke="#03b989"
                      transform="translate(5.684341886080802e-14 413.02729770999997) translate(366.50374999999997 56.976) scale(0.75) translate(-328.2935 22.912)"></path>
                <path id="path132657" style="font-style:normal;font-weight:400;font-size:32px;line-height:1;font-family:Lora;font-variant-ligatures:none;text-align:center;text-anchor:middle"
                      d="m 355.095,-16.512 q 1.888,0 3.488,0.992 1.6,0.96 2.56,2.784 0.992,1.792 0.992,4.16 0,2.656 -1.12,4.736 -1.12,2.048 -3.008,3.2 -1.856,1.152 -4.032,1.152 -2.208,0 -3.84,-1.056 v 5.312 q 0,1.44 -0.128,2.176 l 2.016,-0.096 V 8.16 h -6.528 V 7.2 q 0.928,0 1.312,-0.48 0.416,-0.448 0.48,-1.152 0.064,-0.672 0.096,-2.272 l 0.064,-15.456 q 0,-1.344 0.128,-2.08 l -2.272,0.128 v -1.344 q 1.888,0 2.592,-0.192 0.704,-0.224 1.152,-0.672 h 0.96 q 0.128,1.568 0.128,1.728 0.96,-0.864 2.304,-1.376 1.344,-0.544 2.656,-0.544 z m -1.152,1.568 q -1.056,0 -2.048,0.512 -0.992,0.512 -1.728,1.28 0.032,0.224 0.032,1.952 l -0.032,9.184 q 1.632,1.248 3.744,1.248 1.504,0 2.592,-0.928 1.12,-0.928 1.728,-2.592 0.608,-1.664 0.608,-3.776 0,-2.88 -1.248,-4.864 -1.216,-2.016 -3.648,-2.016 z"
                      stroke-width="0" stroke-linejoin="miter" stroke-miterlimit="2" fill="#03b989" stroke="#03b989"
                      transform="translate(5.684341886080802e-14 413.02729770999997) translate(380.010875 61.775999999999996) scale(0.75) translate(-345.303 16.512)"></path>
                <path id="path132659" style="font-style:normal;font-weight:400;font-size:32px;line-height:1;font-family:Lora;font-variant-ligatures:none;text-align:center;text-anchor:middle"
                      d="m 372.908,-16.512 q 1.824,0 3.296,0.8 1.472,0.8 2.336,2.4 0.864,1.568 0.864,3.872 l -11.264,0.192 q -0.032,3.84 1.248,5.984 1.312,2.144 4.032,2.144 1.472,0 3.008,-0.768 1.568,-0.768 2.4,-1.888 l 0.768,0.64 q -1.216,1.856 -3.168,2.752 -1.92,0.896 -3.776,0.896 -2.208,0 -4,-1.024 -1.76,-1.056 -2.784,-2.976 -1.024,-1.952 -1.024,-4.48 0,-2.24 1.024,-4.192 1.024,-1.984 2.848,-3.168 1.856,-1.184 4.192,-1.184 z m 0.032,1.248 q -3.968,0 -4.704,4.672 h 8.16 q 0,-1.92 -0.864,-3.296 -0.864,-1.376 -2.592,-1.376 z"
                      stroke-width="0" stroke-linejoin="miter" stroke-miterlimit="2" fill="#03b989" stroke="#03b989"
                      transform="translate(5.684341886080802e-14 413.02729770999997) translate(395.416625 61.775999999999996) scale(0.75) translate(-364.844 16.512)"></path>
                <path id="path132661" style="font-style:normal;font-weight:400;font-size:32px;line-height:1;font-family:Lora;font-variant-ligatures:none;text-align:center;text-anchor:middle"
                      d="m 390.0955,-16.512 q 1.824,0 3.296,0.8 1.472,0.8 2.336,2.4 0.864,1.568 0.864,3.872 l -11.264,0.192 q -0.032,3.84 1.248,5.984 1.312,2.144 4.032,2.144 1.472,0 3.008,-0.768 1.568,-0.768 2.4,-1.888 l 0.768,0.64 q -1.216,1.856 -3.168,2.752 -1.92,0.896 -3.776,0.896 -2.208,0 -4,-1.024 -1.76,-1.056 -2.784,-2.976 -1.024,-1.952 -1.024,-4.48 0,-2.24 1.024,-4.192 1.024,-1.984 2.848,-3.168 1.856,-1.184 4.192,-1.184 z m 0.032,1.248 q -3.968,0 -4.704,4.672 h 8.16 q 0,-1.92 -0.864,-3.296 -0.864,-1.376 -2.592,-1.376 z"
                      stroke-width="0" stroke-linejoin="miter" stroke-miterlimit="2" fill="#03b989" stroke="#03b989"
                      transform="translate(5.684341886080802e-14 413.02729770999997) translate(409.05725 61.775999999999996) scale(0.75) translate(-382.0315 16.512)"></path>
                <path id="path132663" style="font-style:normal;font-weight:400;font-size:32px;line-height:1;font-family:Lora;font-variant-ligatures:none;text-align:center;text-anchor:middle"
                      d="m 403.8225,-3.392 q 0,1.248 -0.16,2.176 l 2.016,-0.096 V 0 h -6.528 v -0.96 q 0.928,0 1.312,-0.448 0.416,-0.48 0.48,-1.184 0.096,-0.736 0.096,-2.272 V -20 q 0,-1.216 0.096,-2.08 l -2.272,0.128 v -1.344 q 1.92,0 2.72,-0.224 0.832,-0.224 1.28,-0.64 h 0.928 z"
                      stroke-width="0" stroke-linejoin="miter" stroke-miterlimit="2" fill="#03b989" stroke="#03b989"
                      transform="translate(5.684341886080802e-14 413.02729770999997) translate(422.43050000000005 56.04) scale(0.75) translate(-398.8625 24.16)"></path>
                <path id="path132665" style="font-style:normal;font-weight:400;font-size:32px;line-height:1;font-family:Lora;font-variant-ligatures:none;text-align:center;text-anchor:middle"
                      d="m 423.262,-18.432 q 0.8,0 1.248,0.448 0.448,0.416 0.448,1.152 0,0.448 -0.352,0.896 -0.32,0.416 -0.96,0.416 -0.544,0 -0.928,-0.32 -0.384,-0.32 -0.48,-0.8 -0.768,0.096 -1.216,0.704 -0.448,0.576 -0.64,1.408 0.8,0.736 1.248,1.728 0.448,0.992 0.448,2.08 0,1.76 -0.928,3.168 -0.928,1.408 -2.496,2.208 -1.536,0.8 -3.328,0.8 -0.416,0 -1.056,-0.064 -0.48,-0.096 -1.088,-0.096 -1.056,0 -1.792,0.48 -0.704,0.448 -0.704,1.12 0,0.928 1.152,1.248 1.184,0.288 4,0.384 3.936,0.192 5.888,1.28 1.984,1.056 1.984,3.52 0,1.632 -1.152,2.848 -1.12,1.216 -2.944,1.856 -1.792,0.64 -3.744,0.64 -2.752,0 -4.544,-0.608 -1.792,-0.608 -2.624,-1.6 -0.832,-0.992 -0.832,-2.112 0,-1.344 0.896,-2.368 0.896,-0.992 2.048,-1.472 -1.088,-0.352 -1.664,-0.96 -0.544,-0.608 -0.544,-1.568 0,-1.152 0.896,-2.112 0.928,-0.96 2.304,-1.184 -1.504,-0.704 -2.368,-1.952 -0.864,-1.28 -0.864,-2.912 0,-1.856 0.96,-3.296 0.992,-1.44 2.528,-2.24 1.568,-0.8 3.264,-0.8 2.176,0 4.064,1.184 0.48,-1.376 1.536,-2.24 1.088,-0.864 2.336,-0.864 z m -8,3.04 q -1.696,0 -2.656,1.28 -0.96,1.248 -0.96,3.232 0,2.336 0.992,3.776 1.024,1.408 2.784,1.408 1.728,0 2.624,-1.216 0.928,-1.216 0.928,-3.168 0,-2.24 -0.992,-3.776 -0.96,-1.536 -2.72,-1.536 z M 412.222,0.8 q -0.864,0.576 -1.344,1.408 -0.48,0.832 -0.48,1.76 0,1.568 1.472,2.496 1.504,0.96 3.968,0.96 1.76,0 3.072,-0.48 1.344,-0.448 2.048,-1.248 0.704,-0.768 0.704,-1.696 0,-1.632 -1.568,-2.24 -1.536,-0.608 -4.576,-0.704 -2.016,-0.064 -3.296,-0.256 z"
                      stroke-width="0" stroke-linejoin="miter" stroke-miterlimit="2" fill="#03b989" stroke="#03b989"
                      transform="translate(5.684341886080802e-14 413.02729770999997) translate(429.93612500000006 60.336) scale(0.75) translate(-407.87 18.432)"></path>
                <path id="path132667" style="font-style:normal;font-weight:400;font-size:32px;line-height:1;font-family:Lora;font-variant-ligatures:none;text-align:center;text-anchor:middle"
                      d="m 433.594,-16.512 q 2.208,0 4.064,1.088 1.856,1.056 2.912,2.912 1.088,1.856 1.088,4.128 0,2.432 -1.088,4.48 -1.056,2.048 -2.912,3.232 -1.824,1.184 -4.064,1.184 -2.208,0 -4.064,-1.024 -1.824,-1.056 -2.912,-2.912 -1.056,-1.856 -1.056,-4.192 0,-2.496 1.056,-4.512 1.056,-2.048 2.88,-3.2 1.856,-1.184 4.096,-1.184 z m 0,1.216 q -2.368,0 -3.584,1.952 -1.184,1.952 -1.184,4.8 0,2.048 0.544,3.84 0.576,1.76 1.696,2.848 1.152,1.088 2.784,1.088 2.336,0 3.424,-1.92 1.12,-1.92 1.12,-4.768 0,-3.232 -1.216,-5.536 -1.184,-2.304 -3.584,-2.304 z"
                      stroke-width="0" stroke-linejoin="miter" stroke-miterlimit="2" fill="#03b989" stroke="#03b989"
                      transform="translate(5.684341886080802e-14 413.02729770999997) translate(443.955125 61.775999999999996) scale(0.75) translate(-425.562 16.512)"></path>
                <path id="path132669" style="font-style:normal;font-weight:400;font-size:32px;line-height:1;font-family:Lora;font-variant-ligatures:none;text-align:center;text-anchor:middle"
                      d="m 452.408,-16.512 q 1.824,0 3.296,0.8 1.472,0.8 2.336,2.4 0.864,1.568 0.864,3.872 l -11.264,0.192 q -0.032,3.84 1.248,5.984 1.312,2.144 4.032,2.144 1.472,0 3.008,-0.768 1.568,-0.768 2.4,-1.888 l 0.768,0.64 q -1.216,1.856 -3.168,2.752 -1.92,0.896 -3.776,0.896 -2.208,0 -4,-1.024 -1.76,-1.056 -2.784,-2.976 -1.024,-1.952 -1.024,-4.48 0,-2.24 1.024,-4.192 1.024,-1.984 2.848,-3.168 1.856,-1.184 4.192,-1.184 z m 0.032,1.248 q -3.968,0 -4.704,4.672 h 8.16 q 0,-1.92 -0.864,-3.296 -0.864,-1.376 -2.592,-1.376 z"
                      stroke-width="0" stroke-linejoin="miter" stroke-miterlimit="2" fill="#03b989" stroke="#03b989"
                      transform="translate(5.684341886080802e-14 413.02729770999997) translate(458.791625 61.775999999999996) scale(0.75) translate(-444.344 16.512)"></path>
                <path id="path132671" style="font-style:normal;font-weight:400;font-size:32px;line-height:1;font-family:Lora;font-variant-ligatures:none;text-align:center;text-anchor:middle"
                      d="m 476.2195,-3.392 q 0,1.024 -0.128,2.176 l 2.272,-0.128 V 0 h -4.576 q -0.16,-0.864 -0.224,-1.664 -0.928,1.024 -2.272,1.6 -1.312,0.576 -2.848,0.576 -1.984,0 -3.552,-0.992 -1.568,-0.992 -2.464,-2.816 -0.896,-1.824 -0.896,-4.256 0,-2.56 1.056,-4.608 1.056,-2.048 2.912,-3.2 1.888,-1.152 4.256,-1.152 0.992,0 2.016,0.288 1.056,0.256 1.728,0.608 V -20 q 0,-1.216 0.096,-2.08 l -2.272,0.128 v -1.344 q 1.888,0 2.688,-0.224 0.832,-0.224 1.28,-0.64 h 0.928 z m -6.272,-11.872 q -2.304,0 -3.712,1.92 -1.408,1.888 -1.408,5.024 0,3.264 1.248,5.28 1.248,1.984 3.52,1.984 1.024,0 2.08,-0.576 1.088,-0.608 1.824,-1.536 -0.032,-0.512 -0.032,-1.76 l 0.032,-9.216 q -1.504,-1.12 -3.552,-1.12 z"
                      stroke-width="0" stroke-linejoin="miter" stroke-miterlimit="2" fill="#03b989" stroke="#03b989"
                      transform="translate(5.684341886080802e-14 413.02729770999997) translate(472.43225 56.04) scale(0.75) translate(-461.5315 24.16)"></path>
                <path id="path132673" style="font-style:normal;font-weight:400;font-size:32px;line-height:1;font-family:Lora;font-variant-ligatures:none;text-align:center;text-anchor:middle"
                      d="m 503.814,-15.04 q -0.672,0 -1.152,0.48 -0.48,0.448 -0.896,1.28 -0.384,0.832 -1.056,2.56 l -4.192,10.816 h -1.28 l -4.576,-10.432 q -1.28,-2.944 -1.344,-4.448 l -1.376,0.096 V -16 h 5.888 v 0.96 q -1.408,0 -1.408,1.184 0,0.864 0.672,2.368 l 2.464,5.632 q 0.416,0.992 0.96,2.368 h 0.032 q 0.096,-0.32 0.256,-0.704 l 0.48,-1.376 2.56,-7.008 q 0.32,-0.928 0.96,-2.208 l -2.048,0.096 V -16 h 5.056 z"
                      stroke-width="0" stroke-linejoin="miter" stroke-miterlimit="2" fill="#03b989" stroke="#03b989"
                      transform="translate(5.684341886080802e-14 413.02729770999997) translate(492.99012500000003 62.16) scale(0.75) translate(-487.942 16)"></path>
                <path id="path132675" style="font-style:normal;font-weight:400;font-size:32px;line-height:1;font-family:Lora;font-variant-ligatures:none;text-align:center;text-anchor:middle"
                      d="m 513.094,-16.512 q 2.208,0 4.064,1.088 1.856,1.056 2.912,2.912 1.088,1.856 1.088,4.128 0,2.432 -1.088,4.48 -1.056,2.048 -2.912,3.232 -1.824,1.184 -4.064,1.184 -2.208,0 -4.064,-1.024 -1.824,-1.056 -2.912,-2.912 -1.056,-1.856 -1.056,-4.192 0,-2.496 1.056,-4.512 1.056,-2.048 2.88,-3.2 1.856,-1.184 4.096,-1.184 z m 0,1.216 q -2.368,0 -3.584,1.952 -1.184,1.952 -1.184,4.8 0,2.048 0.544,3.84 0.576,1.76 1.696,2.848 1.152,1.088 2.784,1.088 2.336,0 3.424,-1.92 1.12,-1.92 1.12,-4.768 0,-3.232 -1.216,-5.536 -1.184,-2.304 -3.584,-2.304 z"
                      stroke-width="0" stroke-linejoin="miter" stroke-miterlimit="2" fill="#03b989" stroke="#03b989"
                      transform="translate(5.684341886080802e-14 413.02729770999997) translate(506.580125 61.775999999999996) scale(0.75) translate(-505.062 16.512)"></path>
                <path id="path132677" style="font-style:normal;font-weight:400;font-size:32px;line-height:1;font-family:Lora;font-variant-ligatures:none;text-align:center;text-anchor:middle"
                      d="m 531.844,-16.512 q 2.208,0 4.064,1.088 1.856,1.056 2.912,2.912 1.088,1.856 1.088,4.128 0,2.432 -1.088,4.48 -1.056,2.048 -2.912,3.232 -1.824,1.184 -4.064,1.184 -2.208,0 -4.064,-1.024 -1.824,-1.056 -2.912,-2.912 -1.056,-1.856 -1.056,-4.192 0,-2.496 1.056,-4.512 1.056,-2.048 2.88,-3.2 1.856,-1.184 4.096,-1.184 z m 0,1.216 q -2.368,0 -3.584,1.952 -1.184,1.952 -1.184,4.8 0,2.048 0.544,3.84 0.576,1.76 1.696,2.848 1.152,1.088 2.784,1.088 2.336,0 3.424,-1.92 1.12,-1.92 1.12,-4.768 0,-3.232 -1.216,-5.536 -1.184,-2.304 -3.584,-2.304 z"
                      stroke-width="0" stroke-linejoin="miter" stroke-miterlimit="2" fill="#03b989" stroke="#03b989"
                      transform="translate(5.684341886080802e-14 413.02729770999997) translate(521.392625 61.775999999999996) scale(0.75) translate(-523.812 16.512)"></path>
                <path id="path132679" style="font-style:normal;font-weight:400;font-size:32px;line-height:1;font-family:Lora;font-variant-ligatures:none;text-align:center;text-anchor:middle"
                      d="m 552.642,-16.512 q 0.96,0 1.6,0.512 0.64,0.512 0.64,1.504 0,0.512 -0.416,1.024 -0.384,0.512 -1.12,0.512 -0.704,0 -1.152,-0.512 -0.448,-0.544 -0.352,-1.28 -1.216,-0.032 -2.464,0.928 -1.216,0.96 -2.08,2.56 l 0.032,7.872 q 0,1.44 -0.128,2.176 l 2.016,-0.096 V 0 h -6.56 v -0.96 q 0.928,0 1.312,-0.448 0.416,-0.48 0.48,-1.184 0.096,-0.736 0.096,-2.272 v -7.296 q 0,-1.344 0.128,-2.08 l -2.272,0.096 v -1.312 h 0.992 q 1.216,0 1.76,-0.192 0.544,-0.224 1.024,-0.672 h 0.928 q 0.128,1.248 0.16,3.168 0.8,-1.312 2.272,-2.336 1.504,-1.024 3.104,-1.024 z"
                      stroke-width="0" stroke-linejoin="miter" stroke-miterlimit="2" fill="#03b989" stroke="#03b989"
                      transform="translate(5.684341886080802e-14 413.02729770999997) translate(536.085125 61.775999999999996) scale(0.75) translate(-542.402 16.512)"></path>
                <path id="path132681" style="font-style:normal;font-weight:400;font-size:32px;line-height:1;font-family:Lora;font-variant-ligatures:none;text-align:center;text-anchor:middle"
                      d="m 579.5945,-3.392 q 0,1.024 -0.128,2.176 l 2.272,-0.128 V 0 h -4.576 q -0.16,-0.864 -0.224,-1.664 -0.928,1.024 -2.272,1.6 -1.312,0.576 -2.848,0.576 -1.984,0 -3.552,-0.992 -1.568,-0.992 -2.464,-2.816 -0.896,-1.824 -0.896,-4.256 0,-2.56 1.056,-4.608 1.056,-2.048 2.912,-3.2 1.888,-1.152 4.256,-1.152 0.992,0 2.016,0.288 1.056,0.256 1.728,0.608 V -20 q 0,-1.216 0.096,-2.08 l -2.272,0.128 v -1.344 q 1.888,0 2.688,-0.224 0.832,-0.224 1.28,-0.64 h 0.928 z m -6.272,-11.872 q -2.304,0 -3.712,1.92 -1.408,1.888 -1.408,5.024 0,3.264 1.248,5.28 1.248,1.984 3.52,1.984 1.024,0 2.08,-0.576 1.088,-0.608 1.824,-1.536 -0.032,-0.512 -0.032,-1.76 l 0.032,-9.216 q -1.504,-1.12 -3.552,-1.12 z"
                      stroke-width="0" stroke-linejoin="miter" stroke-miterlimit="2" fill="#03b989" stroke="#03b989"
                      transform="translate(5.684341886080802e-14 413.02729770999997) translate(553.7135 56.04) scale(0.75) translate(-564.9065 24.16)"></path>
                <path id="path132683" style="font-style:normal;font-weight:400;font-size:32px;line-height:1;font-family:Lora;font-variant-ligatures:none;text-align:center;text-anchor:middle"
                      d="m 592.0955,-16.512 q 1.824,0 3.296,0.8 1.472,0.8 2.336,2.4 0.864,1.568 0.864,3.872 l -11.264,0.192 q -0.032,3.84 1.248,5.984 1.312,2.144 4.032,2.144 1.472,0 3.008,-0.768 1.568,-0.768 2.4,-1.888 l 0.768,0.64 q -1.216,1.856 -3.168,2.752 -1.92,0.896 -3.776,0.896 -2.208,0 -4,-1.024 -1.76,-1.056 -2.784,-2.976 -1.024,-1.952 -1.024,-4.48 0,-2.24 1.024,-4.192 1.024,-1.984 2.848,-3.168 1.856,-1.184 4.192,-1.184 z m 0.032,1.248 q -3.968,0 -4.704,4.672 h 8.16 q 0,-1.92 -0.864,-3.296 -0.864,-1.376 -2.592,-1.376 z"
                      stroke-width="0" stroke-linejoin="miter" stroke-miterlimit="2" fill="#03b989" stroke="#03b989"
                      transform="translate(5.684341886080802e-14 413.02729770999997) translate(568.80725 61.775999999999996) scale(0.75) translate(-584.0315 16.512)"></path>
                <path id="path132685" style="font-style:normal;font-weight:400;font-size:32px;line-height:1;font-family:Lora;font-variant-ligatures:none;text-align:center;text-anchor:middle"
                      d="m 614.228,-9.024 h 1.28 l 3.904,-4.096 q 1.216,-1.28 1.888,-1.696 l -2.176,0.096 V -16 h 5.824 v 0.96 q -1.408,0.16 -2.56,1.024 -1.152,0.864 -2.56,2.336 l -2.496,2.624 q 0.576,0.256 0.992,0.672 0.448,0.384 0.992,1.056 l 2.272,2.912 q 0.064,0.064 0.704,0.992 0.672,0.896 1.568,1.696 0.928,0.768 1.6,0.768 V 0 h -2.912 q -0.768,0 -1.44,-0.672 -0.672,-0.672 -1.952,-2.336 l -1.248,-1.76 q -0.704,-0.992 -1.344,-1.824 -0.608,-0.864 -1.024,-1.248 l -1.312,0.064 v 4.384 q 0,1.44 -0.128,2.176 l 2.048,-0.096 V 0 h -6.528 v -0.96 q 0.928,0 1.312,-0.448 0.416,-0.48 0.48,-1.184 0.064,-0.704 0.064,-2.272 0,-0.32 0,-3.488 0.032,-3.168 0.032,-11.648 0,-1.216 0.096,-2.08 l -2.272,0.128 v -1.344 q 1.888,0 2.688,-0.224 0.832,-0.224 1.28,-0.64 h 0.928 z"
                      stroke-width="0" stroke-linejoin="miter" stroke-miterlimit="2" fill="#03b989" stroke="#03b989"
                      transform="translate(5.684341886080802e-14 413.02729770999997) translate(588.5326249999999 56.04) scale(0.75) translate(-609.332 24.16)"></path>
                <path id="path132687" style="font-style:normal;font-weight:400;font-size:32px;line-height:1;font-family:Lora;font-variant-ligatures:none;text-align:center;text-anchor:middle"
                      d="m 631.4475,-3.392 q 0,1.248 -0.16,2.176 l 2.016,-0.096 V 0 h -6.528 v -0.96 q 0.928,0 1.312,-0.448 0.416,-0.48 0.48,-1.184 0.096,-0.736 0.096,-2.272 V -20 q 0,-1.216 0.096,-2.08 l -2.272,0.128 v -1.344 q 1.92,0 2.72,-0.224 0.832,-0.224 1.28,-0.64 h 0.928 z"
                      stroke-width="0" stroke-linejoin="miter" stroke-miterlimit="2" fill="#03b989" stroke="#03b989"
                      transform="translate(5.684341886080802e-14 413.02729770999997) translate(602.1492499999999 56.04) scale(0.75) translate(-626.4875 24.16)"></path>
                <path id="path132689" style="font-style:normal;font-weight:400;font-size:32px;line-height:1;font-family:Lora;font-variant-ligatures:none;text-align:center;text-anchor:middle"
                      d="m 643.783,-16.512 q 1.824,0 3.296,0.8 1.472,0.8 2.336,2.4 0.864,1.568 0.864,3.872 l -11.264,0.192 q -0.032,3.84 1.248,5.984 1.312,2.144 4.032,2.144 1.472,0 3.008,-0.768 1.568,-0.768 2.4,-1.888 l 0.768,0.64 q -1.216,1.856 -3.168,2.752 -1.92,0.896 -3.776,0.896 -2.208,0 -4,-1.024 -1.76,-1.056 -2.784,-2.976 -1.024,-1.952 -1.024,-4.48 0,-2.24 1.024,-4.192 1.024,-1.984 2.848,-3.168 1.856,-1.184 4.192,-1.184 z m 0.032,1.248 q -3.968,0 -4.704,4.672 h 8.16 q 0,-1.92 -0.864,-3.296 -0.864,-1.376 -2.592,-1.376 z"
                      stroke-width="0" stroke-linejoin="miter" stroke-miterlimit="2" fill="#03b989" stroke="#03b989"
                      transform="translate(5.684341886080802e-14 413.02729770999997) translate(609.822875 61.775999999999996) scale(0.75) translate(-635.719 16.512)"></path>
                <path id="path132691" style="font-style:normal;font-weight:400;font-size:32px;line-height:1;font-family:Lora;font-variant-ligatures:none;text-align:center;text-anchor:middle"
                      d="m 656.358,-23.296 q 0.736,0 1.216,0.576 0.512,0.544 0.512,1.344 0,0.768 -0.544,1.344 -0.512,0.544 -1.216,0.544 -0.672,0 -1.184,-0.544 -0.512,-0.576 -0.512,-1.344 0,-0.768 0.512,-1.344 0.544,-0.576 1.216,-0.576 z m 1.44,19.904 q 0,1.44 -0.128,2.176 l 2.016,-0.096 V 0 h -6.528 v -0.96 q 0.928,0 1.312,-0.448 0.416,-0.48 0.48,-1.184 0.096,-0.736 0.096,-2.272 v -7.296 q 0,-0.928 0.128,-2.08 l -2.272,0.128 v -1.344 q 1.888,0 2.688,-0.224 0.832,-0.224 1.28,-0.64 h 0.928 z"
                      stroke-width="0" stroke-linejoin="miter" stroke-miterlimit="2" fill="#03b989" stroke="#03b989"
                      transform="translate(5.684341886080802e-14 413.02729770999997) translate(623.460125 56.688) scale(0.75) translate(-652.902 23.296)"></path>
                <path id="path132693" style="font-style:normal;font-weight:400;font-size:32px;line-height:1;font-family:Lora;font-variant-ligatures:none;text-align:center;text-anchor:middle"
                      d="m 671.982,-16.512 q 2.784,0 4.064,1.76 1.28,1.728 1.28,5.408 v 5.952 q 0,1.44 -0.128,2.176 l 2.016,-0.096 V 0 h -6.528 v -0.96 q 0.928,0 1.312,-0.448 0.416,-0.48 0.48,-1.184 0.096,-0.736 0.096,-2.272 v -4.48 q -0.032,-2.752 -0.896,-4.128 -0.864,-1.408 -2.72,-1.408 -1.152,0 -2.304,0.576 -1.12,0.576 -1.856,1.504 0.032,0.352 0.032,1.248 l -0.032,8.16 q 0,1.44 -0.128,2.176 l 2.016,-0.096 V 0 h -6.528 v -0.96 q 0.928,0 1.312,-0.448 0.416,-0.48 0.48,-1.152 0.064,-0.704 0.096,-2.304 l 0.032,-7.296 q 0,-1.344 0.128,-2.08 l -2.272,0.128 v -1.344 q 1.888,0 2.592,-0.192 0.704,-0.224 1.184,-0.672 h 0.928 q 0.064,0.608 0.128,1.952 1.088,-0.96 2.464,-1.536 1.408,-0.608 2.752,-0.608 z"
                      stroke-width="0" stroke-linejoin="miter" stroke-miterlimit="2" fill="#03b989" stroke="#03b989"
                      transform="translate(5.684341886080802e-14 413.02729770999997) translate(630.9841249999998 61.775999999999996) scale(0.75) translate(-661.934 16.512)"></path>
                <path id="path132695" style="font-style:normal;font-weight:400;font-size:32px;line-height:1;font-family:Lora;font-variant-ligatures:none;text-align:center;text-anchor:middle"
                      d="m 689.5955,-16.512 q 1.824,0 3.296,0.8 1.472,0.8 2.336,2.4 0.864,1.568 0.864,3.872 l -11.264,0.192 q -0.032,3.84 1.248,5.984 1.312,2.144 4.032,2.144 1.472,0 3.008,-0.768 1.568,-0.768 2.4,-1.888 l 0.768,0.64 q -1.216,1.856 -3.168,2.752 -1.92,0.896 -3.776,0.896 -2.208,0 -4,-1.024 -1.76,-1.056 -2.784,-2.976 -1.024,-1.952 -1.024,-4.48 0,-2.24 1.024,-4.192 1.024,-1.984 2.848,-3.168 1.856,-1.184 4.192,-1.184 z m 0.032,1.248 q -3.968,0 -4.704,4.672 h 8.16 q 0,-1.92 -0.864,-3.296 -0.864,-1.376 -2.592,-1.376 z"
                      stroke-width="0" stroke-linejoin="miter" stroke-miterlimit="2" fill="#03b989" stroke="#03b989"
                      transform="translate(5.684341886080802e-14 413.02729770999997) translate(646.43225 61.775999999999996) scale(0.75) translate(-681.5315 16.512)"></path>
            </g>
            <g id="title" style="font-style:normal;font-weight:normal;font-size:72px;line-height:1;font-family:'Daniel Black';font-variant-ligatures:none;text-align:center;text-anchor:middle" transform="translate(0 0)">
                <path id="path132698" style="font-style:normal;font-weight:normal;font-size:72px;line-height:1;font-family:'Daniel Black';font-variant-ligatures:none;text-align:center;text-anchor:middle"
                      d="m 462.00781,-22.851562 q -0.77344,0.878906 -0.77344,1.617187 -0.24609,0 -0.73828,0.246094 -0.10547,0.105469 -0.21093,0.597656 -0.10547,0.105469 -0.2461,0.105469 -0.14062,0 -0.24609,-0.105469 l -0.31641,0.386719 q 0.0703,0.140625 0.52735,0.140625 -1.16016,2.601562 -5.09766,4.886718 0.0352,0 0.0352,-0.07031 0,-0.175781 -0.2461,-0.773438 -0.17578,0.210938 -0.66797,0.773438 0,0 0,0 0.0352,0 0.35157,0.632812 l -2.53125,2.390625 q 0.21093,0.140625 0.38671,0.140625 l -7.41796,4.2539068 q -0.59766,-0.2109375 -0.66797,-0.2460938 -0.49219,0 -1.44141,0.8085938 0.0703,0 0.17578,0 0.28125,0 0.8086,-0.1054688 0.80859,-0.1757812 0.80859,-0.1757812 0,0 0,0 -0.35156,0.5625 -0.98438,1.2304687 -0.17578,-0.2109375 -0.8789,-0.2109375 l -12.55078,5.37890625 q -2.63672,1.16015625 -7.24219,2.10937495 -1.86328,0.8789063 -5.41406,0.9492188 -0.10547,0.1757813 -0.10547,0.421875 -1.58203,0.3867188 -2.60156,0.9492188 -1.08985,-0.1757813 -2.88282,-0.5625 -0.14062,0.2460937 -1.125,0.703125 -0.0703,-0.140625 -0.24609,-0.4570313 -0.10547,0.070312 -0.45703,0.4570313 h -1.82813 Q 407.90234,3.3046875 405.44141,2.53125 l -9.87891,-4.7460938 q -0.45703,0 -0.45703,0.1757813 l -0.28125,-0.421875 q -0.49219,-0.28125 -1.51172,-0.9140625 -2.42578,-3.09375 -3.72656,-4.78125 -1.9336,-2.566406 -2.28516,-4.289063 -1.89844,-3.515625 -1.89844,-8.999999 0,-14.765625 10.89844,-26.4375 Q 406.35547,-58.710937 421.82422,-63 q 2.32031,-0.984375 7.6289,-2.390625 l 2.91797,-0.210937 q 0.10547,0 0.21094,0 1.54688,0 4.74609,1.617187 3.55079,1.828125 3.55079,3.65625 0,0.351563 -0.0703,0.703125 1.16016,1.828125 1.16016,2.8125 l -0.52734,1.300781 q 0.0351,0.105469 0.21093,0.351563 0,0.246094 -0.66797,1.757812 -0.63281,1.582032 -0.63281,1.863282 -0.70312,0.949218 -1.58203,0.949218 -0.49219,0 -0.66797,-0.246093 -0.28125,0.246093 -0.84375,0.808593 l -2.25,-0.386718 h -3.02344 q -0.10546,0 -0.5625,-0.07031 -0.42187,-0.105469 -0.52734,-0.105469 -0.28125,0 -2.00391,0.632813 -1.6875,0.632812 -1.93359,0.878906 -0.31641,-0.316406 -0.73828,-0.632812 -0.45703,0.246093 -0.45703,0.773437 -1.47656,0.105469 -3.48047,1.265625 l -10.08984,4.324219 q -0.35157,0.351562 -0.70313,1.125 -1.72266,0.457031 -4.39453,3.480469 l -0.38672,-0.421875 q -0.17578,0.28125 -0.49219,0.949218 -0.80859,0.492188 -2.0039,2.144532 -1.16016,1.617187 -1.3711,2.496093 -0.10547,0 -0.24609,0 -0.28125,0 -0.63281,0.175782 l -3.23438,7.945312 q -0.91406,2.355469 -0.91406,5.0625 0,2.496094 0.70312,3.867188 1.19532,2.355468 5.0625,3.972656 3.48047,1.441406 6.67969,1.441406 h 2.35547 q 2.46094,0 6.43359,-0.84375 4.67579,-1.019531 6.01172,-1.054688 l 9.42188,-3.832031 q 5.23828,-2.144531 9.66797,-4.816406 0.45703,-0.386719 1.23047,-1.335937 -0.42188,-0.175782 -1.08985,-0.914063 0.0352,-0.03516 0.0352,-0.105469 0,-0.105468 -0.10547,-0.246093 l -1.79297,0.246093 q -0.77344,-0.105468 -2.49609,-0.667968 -1.01953,0.140625 -2.91797,0.421875 -0.21094,-0.140625 -1.05469,-0.667969 -0.35156,0.457031 -0.73828,0.457031 h -2.67188 q -0.10546,0.07031 -0.10546,0.28125 0.10546,0.28125 0.24609,0.28125 0,0 -0.42188,-0.28125 -0.38671,-0.28125 -0.49218,-0.28125 h -1.23047 q -0.0703,0.210938 -0.38672,0.632813 -0.80859,0 -3.76172,-0.421875 -0.0703,0 -1.16016,0.140625 -1.08984,0.140625 -1.26562,0.140625 -0.73828,0.808593 -1.37109,0.808593 -0.91407,0 -1.40625,-0.210937 l -2.8125,0.632812 q -2.00391,0 -2.88282,-0.949218 v -0.84375 q -0.38672,-0.28125 -0.84375,-0.949219 -0.3164,-0.07031 -1.16015,-0.597656 0,-0.457032 0.0703,-0.703125 -0.10547,-0.210938 -0.31641,-1.019532 -0.0351,-0.03516 -0.0351,-0.07031 0,-0.210938 0.28125,-0.5625 l -0.87891,-0.878906 Q 413,-30.339844 413,-32.625 q 0.24609,-0.351562 0.70312,-1.265625 0,-0.03516 0,-0.105469 0,-0.351562 -0.5625,-0.984375 0.87891,-0.527343 1.125,-1.371093 l 2.25,-0.84375 0.14063,0.246093 25.41797,-0.703125 q 0.21094,0 0.45703,0 7.20703,0 15.46875,6.257813 l 4.00781,5.695312 q 0.0703,0.316407 0.0703,1.019532 0,0.738281 -0.0703,1.828125 z m -37.125,-26.15625 -0.8789,-0.316407 q -0.31641,0.421875 -0.35157,0.632813 0,0 0.0703,0 0.49218,-0.210938 1.16015,-0.316406 z"
                      stroke-width="0" stroke-linejoin="miter" stroke-miterlimit="2" fill="#03b989" stroke="#03b989"
                      transform="translate(0 268.59151546) translate(300.43513149999984 6.539142459999994) scale(1.67) translate(-385.40234 65.601562)"></path>
                <path id="path132700" style="font-style:normal;font-weight:normal;font-size:72px;line-height:1;font-family:'Daniel Black';font-variant-ligatures:none;text-align:center;text-anchor:middle"
                      d="m 479.33984,-38.882812 q -0.17578,0.316406 -0.5625,0.738281 0.35157,0.878906 0.35157,1.652344 -0.35157,0.5625 -1.89844,1.300781 -0.14063,-0.175781 -0.70313,-0.175781 -0.59765,0 -0.73828,0.175781 -1.51172,-0.808594 -3.44531,-1.089844 -1.30078,-3.023437 -1.30078,-3.691406 0,-0.03516 0,-0.07031 l 0.35156,-3.9375 q 0.35156,-0.140625 1.16016,-0.949218 h 2.21484 q 1.08984,0.632812 2.39063,2.53125 0.91406,0.28125 1.33593,1.441406 0.59766,1.6875 0.84375,2.074219 z M 477.30078,-12.375 q 0,-0.105469 0,-0.105469 -0.0352,0 -0.10547,0.527344 -0.10547,0.808594 -0.17578,1.792969 -0.0703,1.300781 -0.0703,3.1640623 V -3.375 l -1.08985,2.6015625 -0.77343,-0.17578125 q -0.31641,0.24609375 -0.73828,0.52734375 -0.28125,-0.10546875 -0.70313,-0.3515625 -0.35156,0.10546875 -0.73828,0.3515625 Q 472.625,-0.6328125 469.95312,-1.3007812 468.6875,-3.375 467.73828,-8.4375 q -0.17578,-0.8789063 -0.17578,-2.25 0,-0.457031 0.0352,-0.984375 l 0.21093,-6.292969 0.87891,-4.183593 q 0.98437,-0.878907 1.26562,-1.828125 l 1.89844,-0.421875 q 0.42188,0 1.16016,0.492187 1.05469,1.230469 3.16406,3.515625 1.16016,2.039063 1.16016,3.621094 z"
                      stroke-width="0" stroke-linejoin="miter" stroke-miterlimit="2" fill="#33bc76" stroke="#33bc76"
                      transform="translate(0 268.59151546) translate(437.64259869999984 41.06117872) scale(1.67) translate(-467.5625 44.929684)"></path>
                <path id="path132702" style="font-style:normal;font-weight:normal;font-size:72px;line-height:1;font-family:'Daniel Black';font-variant-ligatures:none;text-align:center;text-anchor:middle"
                      d="m 539.52734,-48.832031 q -0.21093,0.316406 -0.80859,1.019531 -0.45703,0.5625 -0.45703,0.984375 0,0.175781 0.0352,0.28125 -0.24609,0.386719 -1.72265,0.703125 -1.58203,0.316406 -1.82813,0.457031 h -0.5625 q -1.61718,-1.617187 -2.07422,-1.617187 -0.0352,0 -0.0703,0 -0.14062,-1.054688 -1.96875,-2.496094 -1.82812,-1.441406 -3.05859,-1.441406 -1.9336,-1.476563 -6.39844,-2.917969 -4.42969,-1.441406 -6.96094,-1.441406 0.0352,0 0.0352,0 0,0.07031 -3.97266,0.808594 -1.30078,0.667968 -2.60156,2.039062 -0.21094,0.246094 -1.40625,2.53125 -2.07422,8.191406 -2.07422,17.894531 0,0.527344 0.0703,1.511719 l 0.49219,6.398438 q 0.45703,0.421875 0.94922,0.421875 0.0352,0 0.0352,0 l 13.18359,-0.492188 q 0.5625,0.07031 1.51172,0.351563 0.21094,0.28125 0.70312,0.84375 0.0703,0 0.10547,0 0.84375,0 2.07422,1.40625 -0.0703,0.140625 -0.52734,0.5625 v 0.527343 q 0.38672,0.351563 0.70312,0.351563 -0.28125,0.351562 -0.28125,0.738281 0,0.175781 0.10547,0.421875 -0.84375,0.457031 -1.4414,1.40625 -1.30079,0.316406 -3.58594,1.96875 -2.4961,0.667969 -7.3125,1.792969 -0.2461,0.07031 -0.98438,0.703125 0.98438,1.371093 2.46094,4.1484372 0.84375,4.2187501 0.98438,4.2187501 0.0351,0 0.0351,-0.070312 v 0.5625 l -2.42578,1.4062499 v 0.6328125 h -1.96875 q -0.38672,0.2812501 -0.38672,0.9140626 -1.33594,-0.3515625 -1.86328,-0.3515625 l -0.73828,0.1757812 q -1.82813,-2.0039063 -5.37891,-4.78125 -1.23047,-1.6875 -3.44531,-4.9921875 h -1.01953 q -0.14063,0 -1.40625,0.386719 -1.33594,0.351562 -1.44141,0.351562 h -3.19922 q -2.39062,0 -3.23437,-0.84375 -3.23438,-0.140625 -3.23438,-3.761719 0,-1.968749 3.23438,-6.117187 0.5625,-0.175781 1.47656,-0.421875 0.5625,-0.175781 0.98438,-0.175781 0.42187,0 0.70312,0.175781 0.91406,-0.421875 2.00391,-0.421875 0.38672,0 0.80859,0.03516 l 0.28125,-0.246093 v -2.355469 q 0,-0.07031 -0.35156,-1.511719 -0.35156,-1.476562 -0.35156,-1.546875 v -4.675781 q 0,-4.078125 0.8789,-10.019531 1.08985,-7.101563 2.77735,-10.828125 4.32422,-9.632813 10.30078,-10.582032 0.8789,-0.316406 6.67969,-1.582031 0.17578,0 0.38671,0 1.51172,0 4.14844,0.949219 0.0703,0 0.45703,-0.140625 0.38672,-0.07031 0.45703,-0.07031 -0.0703,0 -0.0703,0 0,0.07031 1.79297,0.527344 0.38672,-0.316406 0.66797,-0.316406 1.61719,0 10.75781,4.183594 4.95703,3.726562 7.83985,7.242187 -0.0703,0.175781 -0.0703,0.386719 0,0.457031 0.17578,1.300781 0.35157,1.300781 0.38672,1.722656 z"
                      stroke-width="0" stroke-linejoin="miter" stroke-miterlimit="2" fill="#63bf64" stroke="#63bf64"
                      transform="translate(0 268.59151546) translate(463.71038019999986 6.891415600000002) scale(1.67) translate(-483.17195 65.39062)"></path>
                <path id="path132704" style="font-style:normal;font-weight:normal;font-size:72px;line-height:1;font-family:'Daniel Black';font-variant-ligatures:none;text-align:center;text-anchor:middle"
                      d="m 587.33984,-26.332031 h -1.19531 q -0.28125,0.492187 -0.28125,0.84375 0,0.105469 0.0352,0.210937 -0.70313,0.457032 -1.08985,0.457032 -1.82812,1.898437 -2.21484,1.898437 h -3.02344 l -3.16406,0.773438 q -0.45703,-0.140625 -1.05469,-0.140625 l -4.5,0.84375 q -0.0351,0 -0.49219,-0.07031 -0.42187,-0.07031 -0.59765,-0.07031 -0.52735,0 -2.77735,0.351562 -1.40625,0.175781 -4.2539,0.632813 -1.30078,0.210937 -3.44531,1.441406 -1.65235,9.738281 -1.65235,10.582031 v 2.7421875 q 0,0.2109375 -0.5625,2.4609375 -0.5625,2.3203125 -0.5625,2.8125 Q 555.17187,0 552.5,1.3007812 552.42969,1.2304687 551.19922,0.421875 550.00391,-0.38671875 549.75781,-0.38671875 548.35156,-2.4609375 548,-5.4140625 547.89453,-6.1523437 547.54297,-10.089844 L 548.24609,-15.75 v -2.144531 L 548,-18.210937 h -0.77344 l -8.26172,1.6875 q -0.0703,0 -0.14062,0 -0.35156,0 -0.70313,-0.246094 l -6.57422,1.300781 q -0.5625,-0.386719 -2.07421,-1.160156 -0.77344,-0.386719 -1.3711,-1.652344 -0.35156,-0.667969 -0.8789,-1.722656 -0.35157,-3.023438 -0.42188,-3.023438 0,0 0,0.03516 0,-1.054688 0.84375,-2.320313 0.77344,-1.160156 1.51172,-1.160156 0.0352,0 0.10547,0 l 12.83203,-0.878906 8.40234,-1.96875 q 0.84375,-6.328125 2.67188,-18.914063 1.61719,-5.097656 2.95312,-8.507812 1.3711,-1.582032 2.84766,-2.496094 0.45703,0.140625 4.07812,2.496094 0.66797,3.972656 0.70313,3.972656 0,0 0,0 l -3.02344,18.984375 v 2.742187 h 4.95703 q 0,0 0.0352,0 0.14062,0.03516 0.49219,-0.28125 h 1.01953 q 0.10547,0 0.59765,0.07031 0.52735,0.07031 0.66797,0.07031 0.0703,0 1.16016,-0.246093 1.08984,-0.246094 1.19531,-0.246094 0.38672,0 1.08985,0.351562 1.08984,-0.351562 5.27343,-0.351562 0,0 0,0 0,0.03516 5.0625,0.808594 1.26563,0.703125 3.41016,1.546875 0,0.105468 0,0.210937 0,0.457031 -0.24609,0.738281 0.17578,0.949219 0.98437,1.757813 0.10547,0 0.17578,0 0.45703,-0.03516 0.73828,0.28125 z"
                      stroke-width="0" stroke-linejoin="miter" stroke-miterlimit="2" fill="#93c351" stroke="#93c351"
                      transform="translate(0 268.59151546) translate(536.5705263 17.16582674) scale(1.67) translate(-526.80078 59.238278)"></path>
                <path id="path132706" style="font-style:normal;font-weight:normal;font-size:72px;line-height:1;font-family:'Daniel Black';font-variant-ligatures:none;text-align:center;text-anchor:middle"
                      d="m 601.26172,-54.28125 -6.32813,55.7226562 q -1.16015,0 -2.53125,0.5625001 -0.38672,0 -0.77343,-0.3515626 l -0.45704,0.070312 q -0.45703,0.070312 -0.84375,0.070312 -0.14062,-0.140625 -1.79296,-1.47656245 -0.28125,0 -0.84375,0.6328125 -0.2461,-0.703125 -0.70313,-1.65234375 -0.70312,-4.78125 -0.70312,-5.8359375 l 2.95312,-25.4179685 q 1.26563,-10.441406 2.88281,-26.472656 0.28125,-1.160157 1.08985,-4.078125 0.66797,-2.460938 1.79297,-3.585938 l 1.51171,0.175781 q 1.01954,0.949219 1.89844,1.265625 0.21094,0.457032 1.72266,2.355469 1.125,3.410156 1.125,4.183594 z"
                      stroke-width="0" stroke-linejoin="miter" stroke-miterlimit="2" fill="#c3c63f" stroke="#c3c63f"
                      transform="translate(0 268.59151546) translate(635.9094408999999 5.717186830000003) scale(1.67) translate(-586.28516 66.093751)"></path>
                <path id="path132708" style="font-style:normal;font-weight:normal;font-size:72px;line-height:1;font-family:'Daniel Black';font-variant-ligatures:none;text-align:center;text-anchor:middle"
                      d="m 638.77344,-17.4375 q 0,4.324219 -4.04297,17.6484375 -0.59766,1.96875 -5.80078,16.3124995 0.14062,0.210938 0.45703,0.210938 h -0.49219 l -3.26953,7.804687 -3.69141,11.566407 q -0.28125,0.175781 -1.96875,1.96875 -0.24609,0 -1.19531,0.28125 -0.91406,0.316406 -0.91406,0.316406 -0.14063,-0.03516 -0.87891,-0.246094 -1.08984,-1.160156 -3.375,-3.65625 -0.77344,-2.917969 -0.98437,-5.34375 l 1.01953,-5.132812 3.41015,-9.914063 6.60938,-15.7499997 Q 623.55078,-1.6875 623.375,-2.109375 q -3.79688,1.16015625 -5.41406,1.16015625 -5.76563,0 -9.28125,-7.48828125 -2.84766,-6.011719 -2.84766,-12.515625 0,-1.652344 0.77344,-3.796875 0.63281,-0.738281 2.0039,-2.039062 h 0.49219 q 1.72266,0 3.375,2.671875 0.70313,1.125 1.08985,2.953125 1.75781,8.332031 3.02343,8.332031 2.84766,0 7.98047,-4.253906 4.14844,-3.445313 6.85547,-6.890625 0.5625,-0.03516 1.40625,-0.703125 0.73828,0.210937 1.89844,0.210937 0.52734,0.632813 1.79297,2.179688 0.3164,0.07031 0.73828,0.246093 1.51172,1.898438 1.51172,4.605469 z"
                      stroke-width="0" stroke-linejoin="miter" stroke-miterlimit="2" fill="#f3c92c" stroke="#f3c92c"
                      transform="translate(0 268.59151546) translate(668.5527138000001 71.35601746) scale(1.67) translate(-605.83203 26.789062)"></path>
            </g>
            <image xlink:href="" id="icon" style="display: none;" x="0" y="0"></image>
        </g>
    </g>
</svg>
